<svg xmlns="http://www.w3.org/2000/svg" width="148" height="33.4" viewBox="0 0 148 33.4">
  <g id="Prim_x2F_Eng_x2F_DBG" transform="translate(0 -1.3)">
    <path id="Path_6015" data-name="Path 6015" d="M0,17.6v3.8a.684.684,0,0,0,.7.7H5.5c2.3,0,8,0,10.1-5.2H.7a.684.684,0,0,0-.7.7" fill="#eeebe5"/>
    <path id="Path_6016" data-name="Path 6016" d="M31.1,16.2V12.4a.684.684,0,0,0-.7-.7H25.6c-2.3,0-8,0-10.1,5.2H30.4a.684.684,0,0,0,.7-.7" fill="#1cffba"/>
    <path id="Path_6017" data-name="Path 6017" d="M0,27.9v3.8a.684.684,0,0,0,.7.7c2.6,0,7.5-.5,9.4-5.2H.7a.684.684,0,0,0-.7.7" fill="#eeebe5"/>
    <path id="Path_6018" data-name="Path 6018" d="M31.1,26.5V22.7a.684.684,0,0,0-.7-.7H20.2c-2.3,0-8,0-10.1,5.2H30.4a.684.684,0,0,0,.7-.7" fill="#1cffba"/>
    <path id="Path_6019" data-name="Path 6019" d="M0,7.2V11a.684.684,0,0,0,.7.7H10.9c2.3,0,8,0,10.1-5.2H.7a.684.684,0,0,0-.7.7" fill="#eeebe5"/>
    <path id="Path_6020" data-name="Path 6020" d="M31.1,5.8V2a.684.684,0,0,0-.7-.7c-2.6,0-7.5.5-9.4,5.2h9.4a.684.684,0,0,0,.7-.7" fill="#1cffba"/>
    <path id="Path_6021" data-name="Path 6021" d="M76,14.6a4.8,4.8,0,0,1,1.2-3.5,4.07,4.07,0,0,1,3-1.2,3.7,3.7,0,0,1,2.9,1.2,5.235,5.235,0,0,1,1.1,3.5V15H76Zm11.7,3.5A1.11,1.11,0,0,0,88.8,17V15.3a11.644,11.644,0,0,0-.6-3.8,7.674,7.674,0,0,0-1.7-2.9,6.621,6.621,0,0,0-2.7-1.9A7.983,7.983,0,0,0,80.2,6a8.729,8.729,0,0,0-3.7.7,6.621,6.621,0,0,0-2.7,1.9,9.247,9.247,0,0,0-1.7,2.9,11.417,11.417,0,0,0-.6,3.9V18a10.018,10.018,0,0,0,.9,4.5,7.846,7.846,0,0,0,2.2,2.8,8.03,8.03,0,0,0,2.9,1.5,10.323,10.323,0,0,0,3,.4H87a.472.472,0,0,0,.5-.5V23.8a.472.472,0,0,0-.5-.5H80.6a5.27,5.27,0,0,1-2.3-.4,3.325,3.325,0,0,1-1.4-1.2,4.594,4.594,0,0,1-.7-1.6,9.852,9.852,0,0,1-.2-1.7v-.3Z" fill="#eeebe5"/>
    <path id="Path_6022" data-name="Path 6022" d="M122.4,22.8h0a15.385,15.385,0,0,1-1.9.8,7.469,7.469,0,0,1-2,.3,4.2,4.2,0,0,1-2.2-.5c-.5-.3-.7-1-.7-2v-.1a6.8,6.8,0,0,1,.2-1.5,2.589,2.589,0,0,1,.7-1.1,2.618,2.618,0,0,1,1.3-.6,11.491,11.491,0,0,1,2.1-.2h2.5Zm.4,4.3a.758.758,0,0,0,.4.2h3.2a.52.52,0,0,0,.4-.2.764.764,0,0,0,.2-.5V13.4a6.7,6.7,0,0,0-2-5.2,9.523,9.523,0,0,0-6-1.7h-5.6a.472.472,0,0,0-.5.5V9.8a.472.472,0,0,0,.5.5H119a4.764,4.764,0,0,1,2.6.6c.6.4.9,1.3.9,2.6V15H120a16.243,16.243,0,0,0-4.1.4,9.08,9.08,0,0,0-2.8,1.2,5.806,5.806,0,0,0-1.6,1.9,8.21,8.21,0,0,0-.5,2.8v.1a6.392,6.392,0,0,0,.6,3,5.366,5.366,0,0,0,1.4,1.8,4.025,4.025,0,0,0,2,.9,9.079,9.079,0,0,0,2.3.3,7.834,7.834,0,0,0,2.6-.4,15.079,15.079,0,0,0,2.6-1.2l.2-.1v.9c-.1.2,0,.3.1.5" fill="#eeebe5"/>
    <path id="Path_6023" data-name="Path 6023" d="M92.5,34.7h3.4a13.54,13.54,0,0,0,3.1-.3,5.364,5.364,0,0,0,2-1,5.936,5.936,0,0,0,1.3-1.8,23.9,23.9,0,0,0,1-2.6l6.2-21.7V7a.367.367,0,0,0-.1-.3c-.1-.1-.2-.1-.4-.1h-3.8c-.2,0-.3,0-.4.1a.52.52,0,0,0-.2.4l-4,15.8a.312.312,0,0,1-.6,0L95.7,7.1a.758.758,0,0,0-.2-.4c-.1-.1-.2-.2-.3-.2H91.6c-.5,0-.6.2-.6.5v.3l5.5,19.3a.993.993,0,0,0,1,.7h2.1l-.3,1.3a4.031,4.031,0,0,1-1.1,2,3.966,3.966,0,0,1-2,.4H92.6a.472.472,0,0,0-.5.5v2.7a.458.458,0,0,0,.4.5" fill="#eeebe5"/>
    <path id="Path_6024" data-name="Path 6024" d="M131,34.7h3.4a13.54,13.54,0,0,0,3.1-.3,5.364,5.364,0,0,0,2-1,5.936,5.936,0,0,0,1.3-1.8,23.9,23.9,0,0,0,1-2.6L148,7.2V6.9a.367.367,0,0,0-.1-.3c-.1-.1-.2-.1-.4-.1h-3.8c-.2,0-.3,0-.4.1a.52.52,0,0,0-.2.4l-4,15.8c-.1.3-.6.3-.6,0C137.4,19.2,134.2,7,134.2,7a.758.758,0,0,0-.2-.4c-.1-.1-.2-.2-.3-.2H130c-.5,0-.6.2-.6.4v.3l5.5,19.3a.993.993,0,0,0,1,.7H138l-.3,1.3a4.031,4.031,0,0,1-1.1,2,3.557,3.557,0,0,1-1.9.5H131a.472.472,0,0,0-.5.5v2.7c0,.4.2.6.5.6" fill="#eeebe5"/>
    <path id="Path_6025" data-name="Path 6025" d="M69.3,1.5a.6.6,0,0,0-.4-.1H65.2a.758.758,0,0,0-.4.2.758.758,0,0,0-.2.4L62.1,23c0,.2-.2.2-.3,0L58.7,7.3a1.084,1.084,0,0,0-1.1-.8H53.3a1.17,1.17,0,0,0-1.1.8L49,22.9a.15.15,0,1,1-.3,0L46.3,2a.52.52,0,0,0-.2-.4.52.52,0,0,0-.4-.2H42c-.2,0-.3,0-.4.1a.52.52,0,0,0-.2.4c0,.3,3.5,24.5,3.5,24.5a1.088,1.088,0,0,0,1.1.9h5.2a1.17,1.17,0,0,0,1.1-.8l3-14.6c0-.2.4-.2.4,0l3,14.6a1.084,1.084,0,0,0,1.1.8H65a1.172,1.172,0,0,0,1.1-.9S69.6,2.3,69.6,1.9a1.38,1.38,0,0,0-.3-.4" fill="#eeebe5"/>
  </g>
</svg>
